<svg class="navbar_logo" height="60px" viewBox="0 0 166 41" fill="CurrentColor" xmlns="http://www.w3.org/2000/svg">
<path fill-rule="evenodd" clip-rule="evenodd" d="M8.88499 28.6395L0 19.7546L19.7546 0L28.6498 8.89524L25.7036 11.8414L34.5886 20.7264L14.6206 40.6945L5.72532 31.7992L8.88499 28.6395ZM24.6235 18.7858H19.0481C18.8871 18.7858 18.7462 18.9065 18.7462 19.0676V30.5203H15.0024V22.5296L18.5852 18.9468C18.6456 18.8864 18.6053 18.7858 18.5248 18.7858H9.14524V15.042H18.7663V18.5442C18.7663 18.6248 18.867 18.665 18.9274 18.6046L22.5101 15.0219H24.6437V18.7858H24.6235ZM101.271 19.9227C101.271 25.1559 103.766 28.014 108.013 28.014C111.314 28.014 113.649 25.8604 114.313 22.2977H112.965C112.321 25.1156 110.489 26.7863 107.993 26.7863C104.632 26.7863 102.639 24.391 102.639 19.9227C102.639 15.4543 104.873 13.0993 107.993 13.0591C110.57 13.0389 112.381 14.7498 112.985 17.6281H114.333C113.71 14.0051 111.395 11.7709 108.013 11.8313C104.109 11.8917 101.271 14.6894 101.271 19.9227ZM128.704 12.4951H127.396V27.8124H128.704V12.4951ZM52.0571 12.4961H39.3564V14.9517H44.3079V27.8335H47.1459V14.9517H52.0571V12.4961ZM64.6771 18.3725V16.3799H61.8994V27.8729H64.6771V18.8355H68.7831V16.3799H66.6697L64.6771 18.3725ZM54.775 25.6991C55.9827 25.6991 57.1904 24.7933 57.1904 22.8007V16.3799H59.968V27.8527H57.2105V25.9809C56.5865 27.3294 55.4795 27.9936 53.8089 27.9936C51.2325 27.9936 49.9443 26.5847 49.9443 23.8071V16.3799H52.722V23.2636C52.722 24.9946 53.3258 25.6991 54.775 25.6991ZM72.8899 12.5371H70.1123V14.9323H72.8899V12.5371ZM70.1123 16.3799H72.8899V27.8527H70.1123V16.3799ZM80.7798 16.1191C79.1092 16.1191 78.0022 16.7834 77.3782 18.1319V16.3808H74.6006V27.8537H77.3782V21.3121C77.3782 19.4805 78.2638 18.4137 79.7936 18.4137C81.2428 18.4137 81.8466 19.1182 81.8466 20.8492V27.8335H84.6242V20.4265C84.6444 17.5482 83.3763 16.1191 80.7798 16.1191ZM93.9225 17.5683V16.3808H96.7605L96.7203 26.9882C96.7203 30.3294 94.7679 32.1812 91.2254 32.1812C88.4477 32.1812 86.596 30.8527 86.2739 28.6387L86.2538 28.538L89.0516 28.1153L89.0717 28.216C89.2931 29.3431 90.058 29.8665 91.4468 29.8665C92.5337 29.8665 93.842 29.4236 93.8822 27.3102V26.1629C93.2583 27.0888 92.2921 27.5518 90.9235 27.5518C88.0854 27.5518 86.0928 25.1968 86.0928 21.8153C86.0928 18.454 88.0854 16.1191 90.9235 16.1191C92.3123 16.1191 93.2985 16.5821 93.9225 17.5683ZM94.3452 21.8357V21.8354C94.3452 19.5409 93.4797 18.454 91.5675 18.4338C89.8366 18.4338 88.8905 19.6415 88.8905 21.8354C88.8905 24.0093 89.8567 25.2572 91.5675 25.2572C92.896 25.2572 93.7212 24.6936 94.1037 23.5463L94.3251 22.4192C94.3452 22.2381 94.3452 22.057 94.3452 21.8357ZM115.54 22.4184C115.54 18.896 117.452 16.8027 120.673 16.8027C123.893 16.8027 125.805 18.8759 125.805 22.4184C125.805 25.9408 123.893 28.0341 120.673 28.0341C117.452 28.0139 115.54 25.9408 115.54 22.4184ZM124.457 22.4184C124.457 19.6005 123.048 17.9098 120.673 17.9098C118.277 17.9098 116.889 19.6005 116.889 22.4184C116.889 25.2363 118.298 26.9069 120.673 26.9069C123.048 26.9069 124.457 25.2363 124.457 22.4184ZM130.737 12.4951H132.046V27.7923H130.737V12.4951ZM134.963 22.6807H143.336V22.419C143.336 18.8564 141.524 16.7832 138.485 16.7832C135.406 16.7832 133.614 18.8765 133.614 22.419C133.614 25.9414 135.426 28.0145 138.485 28.0145C141.202 28.0145 143.034 26.5251 143.336 24.0292H142.028C141.746 25.8609 140.438 26.9276 138.505 26.9276C136.352 26.9276 135.023 25.3577 134.963 22.6807ZM142.008 21.795H134.983C135.164 19.3193 136.452 17.8701 138.505 17.8701C140.538 17.8701 141.826 19.3193 142.008 21.795ZM165.981 22.6797H157.607C157.668 25.3567 158.996 26.9267 161.15 26.9267C163.082 26.9267 164.39 25.8599 164.672 24.0282H165.981C165.679 26.5241 163.847 28.0136 161.13 28.0136C158.07 28.0136 156.259 25.9404 156.259 22.418C156.259 18.8755 158.05 16.7822 161.13 16.7822C164.169 16.7822 165.981 18.8554 165.981 22.418V22.6797ZM157.627 21.7941H164.652C164.471 19.3183 163.183 17.8691 161.15 17.8691C159.097 17.8691 157.809 19.3183 157.627 21.7941ZM154.688 17.0241V27.3296C154.688 30.1877 152.776 32.2005 149.616 32.2005C146.939 32.2005 145.228 30.9325 144.906 28.6782C144.906 28.648 144.901 28.6127 144.896 28.5775C144.892 28.5531 144.889 28.5287 144.887 28.5059C144.886 28.4959 144.886 28.4861 144.886 28.4769L146.134 28.2957C146.134 28.3159 146.139 28.341 146.144 28.3662C146.149 28.3913 146.154 28.4165 146.154 28.4366C146.375 30.1274 147.643 31.0935 149.636 31.0935C151.951 31.0935 153.42 29.5034 153.4 27.4705V24.3305H153.36C153.36 26.6251 151.85 28.0139 149.334 28.0139C146.375 28.0139 144.624 25.9408 144.624 22.3983C144.624 18.896 146.375 16.8027 149.334 16.8027C151.85 16.8027 153.36 18.1916 153.36 20.4861H153.4V17.0241H154.688ZM153.5 22.3983C153.5 19.6206 152.091 17.9098 149.716 17.9098C147.321 17.9098 145.932 19.6005 145.932 22.3983C145.932 25.2162 147.341 26.8868 149.716 26.8868C152.091 26.8868 153.5 25.196 153.5 22.3983Z"></path>
</svg>